<?xml version="1.0" encoding="UTF-8"?>
<svg xmlns="http://www.w3.org/2000/svg" version="1.1" viewBox="0 0 800 800">
  <!-- Generator: Adobe Illustrator 29.0.1, SVG Export Plug-In . SVG Version: 2.1.0 Build 192)  -->
  <defs>
    <style>
      .st0 {
        isolation: isolate;
        opacity: .5;
      }

      .st0, .st1 {
        fill: #1c274c;
      }
    </style>
  </defs>
  <path id="fill" class="st0" d="M400,100c-77,0-125.7,86.2-222.9,258.7l-12.1,21.5c-80.8,143.3-121.3,215-84.7,267.4,36.5,52.4,126.9,52.4,307.7,52.4h24.2c180.8,0,271.1,0,307.7-52.4,36.5-52.4-3.9-124.1-84.7-267.4l-12.1-21.5c-97.3-172.5-145.9-258.7-222.9-258.7Z"/>
  <path id="mark-line" class="st1" d="M400,241.7c13.8,0,25,11.2,25,25v166.7c0,13.8-11.2,25-25,25s-25-11.2-25-25v-166.7c0-13.8,11.2-25,25-25Z"/>
  <path id="mark-dot" class="st1" d="M400,566.7c18.4,0,33.3-14.9,33.3-33.3s-14.9-33.3-33.3-33.3-33.3,14.9-33.3,33.3,14.9,33.3,33.3,33.3Z"/>
</svg>