<?xml version="1.0" encoding="UTF-8"?>
<svg id="Layer_1" xmlns="http://www.w3.org/2000/svg" version="1.1" viewBox="0 0 800 800">
  <!-- Generator: Adobe Illustrator 29.1.0, SVG Export Plug-In . SVG Version: 2.1.0 Build 142)  -->
  <defs>
    <style>
      .st0 {
        fill-rule: evenodd;
      }

      .st0, .st1 {
        fill: #0f0f0f;
      }
    </style>
  </defs>
  <path id="bottom" class="st1" d="M313.9,618c25.8-38.1,62.2-84.7,86.1-84.7s60.3,46.6,86.1,84.7c14.4,21.2-1.3,48.6-26.9,48.6h-118.4c-25.6,0-41.2-27.4-26.9-48.6Z"/>
  <path id="top" class="st1" d="M400,300c11.7,0,32.9-25.5,50.9-50.8,15.1-21.1-.6-49.2-26.5-49.2h-48.8c-25.9,0-41.6,28.1-26.5,49.2,18.1,25.3,39.2,50.8,50.9,50.8Z"/>
  <path id="outer" class="st0" d="M133.3,66.7c0-18.4,14.9-33.3,33.3-33.3h466.7c18.4,0,33.3,14.9,33.3,33.3s-14.9,33.3-33.3,33.3h-34.2c-4.5,80.4-25.4,141.3-56.1,191.4-26.7,43.7-60.3,78-93.4,108.6,33.1,30.6,66.7,65,93.4,108.6,30.7,50.1,51.6,111,56.1,191.4h34.2c18.4,0,33.3,14.9,33.3,33.3s-14.9,33.3-33.3,33.3H166.7c-18.4,0-33.3-14.9-33.3-33.3s14.9-33.3,33.3-33.3h34.2c4.5-80.4,25.4-141.3,56.1-191.4,26.7-43.7,60.3-78,93.4-108.6-33.1-30.6-66.7-65-93.4-108.6-30.7-50.1-51.6-111-56.1-191.4h-34.2c-18.4,0-33.3-14.9-33.3-33.3ZM532.3,700c-4.4-68.3-22.1-117.3-46.1-156.6-23.2-38-53-68-86.2-98.5-33.2,30.5-62.9,60.5-86.2,98.5-24,39.2-41.8,88.3-46.1,156.6h264.6ZM267.7,100h264.6c-4.4,68.3-22.1,117.3-46.1,156.6-23.2,38-53,68-86.2,98.5-33.2-30.5-62.9-60.5-86.2-98.5-24-39.2-41.8-88.3-46.1-156.6Z"/>
</svg>